inDegrees=no
num_controls=7
num_derivatives=13
num_iterations=202
num_multipliers=7
num_parameters=0
num_slacks=7
num_states=26
objective=0.508820
objective_accelerations=0.041024
objective_balance=0.003608
objective_effort=0.029753
objective_height=0.321977
objective_ligament=0.112458
solver_duration=2886.708006
status=Solve_Succeeded
success=true
DataType=double
version=3
OpenSimVersion=4.5
endheader
time	/jointset/ground_pelvis/pelvis_tilt/value	/jointset/ground_pelvis/pelvis_tx/value	/jointset/ground_pelvis/pelvis_ty/value	/jointset/hip_l/hip_flexion_l/value	/jointset/hip_l/hip_adduction_l/value	/jointset/hip_l/hip_rotation_l/value	/jointset/back/lumbar_extension/value	/jointset/patellofemoral_l/patellar_flexion_l/value	/jointset/knee_l/knee_flexion_l/value	/jointset/knee_l/knee_adduction_l/value	/jointset/knee_l/knee_rotation_l/value	/jointset/ankle_l/ankle_angle_l/value	/jointset/subtalar_l/subtalar_angle_l/value	/jointset/ground_pelvis/pelvis_tilt/speed	/jointset/ground_pelvis/pelvis_tx/speed	/jointset/ground_pelvis/pelvis_ty/speed	/jointset/hip_l/hip_flexion_l/speed	/jointset/hip_l/hip_adduction_l/speed	/jointset/hip_l/hip_rotation_l/speed	/jointset/back/lumbar_extension/speed	/jointset/patellofemoral_l/patellar_flexion_l/speed	/jointset/knee_l/knee_flexion_l/speed	/jointset/knee_l/knee_adduction_l/speed	/jointset/knee_l/knee_rotation_l/speed	/jointset/ankle_l/ankle_angle_l/speed	/jointset/subtalar_l/subtalar_angle_l/speed	/forceset/tau_hip_flexion_l	/forceset/tau_hip_adduction_l	/forceset/tau_hip_rotation_l	/forceset/tau_knee_flexion_l	/forceset/tau_ankle_angle_l	/forceset/tau_subtalar_angle_l	/forceset/tau_lumbar_extension	lambda_cid13_p0	lambda_cid13_p1	lambda_cid13_p2	lambda_cid13_p3	lambda_cid13_p4	lambda_cid13_p5	lambda_cid14_p0	/jointset/ground_pelvis/pelvis_tilt/accel	/jointset/ground_pelvis/pelvis_tx/accel	/jointset/ground_pelvis/pelvis_ty/accel	/jointset/hip_l/hip_flexion_l/accel	/jointset/hip_l/hip_adduction_l/accel	/jointset/hip_l/hip_rotation_l/accel	/jointset/back/lumbar_extension/accel	/jointset/patellofemoral_l/patellar_flexion_l/accel	/jointset/knee_l/knee_flexion_l/accel	/jointset/knee_l/knee_adduction_l/accel	/jointset/knee_l/knee_rotation_l/accel	/jointset/ankle_l/ankle_angle_l/accel	/jointset/subtalar_l/subtalar_angle_l/accel	gamma_cid13_p0	gamma_cid13_p1	gamma_cid13_p2	gamma_cid13_p3	gamma_cid13_p4	gamma_cid13_p5	gamma_cid14_p0
0	-0.01689740395896317	0.04719617067182288	0.9233472160438602	0.3085816938045678	-0.260382838069565	-0.3179250440026299	-0.3879492264334186	0.2499269421185012	0.2499269421184919	-0.100458185360521	-0.1744927759823018	-0.0008036623358878681	0.03732173762784514	0	0	0	0	0	0	0	0	0	0	0	0	0	0.1017149928124937	-0.04248862145116312	-0.01630181975974821	-0.2949790840487988	0.2628541388468885	-0.03992121132843628	-0.01327734421550276	38.70721070394847	9.936262276985381	-1.325469795616455	3.545284493554498	-633.2695222846213	-60.05388843076223	-22.93010497047203	-1.695060150519506	-1.954759028734425	-0.8421538890653434	8.520241975437395	-0.3791149092466555	2.081710430939561	-6.795292897589468	6.893520477975405	6.893520477975589	1.545749520555545	-0.02578940095486645	0.5013433349636606	-0.2362726497122712	2.293098029974621e-08	1.071745023467916e-07	-4.599981785940967e-08	-9.938711117479805e-09	1.043423364180523e-07	5.659355554453295e-08	1.682795231680956e-08
0.01	-0.01697795052378675	0.04710032707487845	0.9233060353004297	0.3089968066699056	-0.2604027321912499	-0.3178200380641119	-0.3882868368121462	0.2502659276595164	0.2502659276595018	-0.1003850561027769	-0.1744919968373629	-0.0007785598019375939	0.03730894399533313	-0.01597877418874591	-0.01899502279964993	-0.008198882947775692	0.08249428141062863	-0.004041304715003554	0.02094279631729765	-0.0670010422984875	0.06757065407653347	0.06757065407653365	0.01441373515514894	0.0001467382934817784	0.005136094779295225	-0.002580348527037319	0.09551583358378656	-0.0502445880475994	-0.01588998612821022	-0.2904734226856794	0.2565701311161336	-0.02944794888244642	-0.007277617572979274	37.1037026572595	5.705530950459578	-0.6932889554961891	2.336262456656086	-635.7511917334748	-68.31442274109291	-22.93449030185678	-1.529707259176403	-1.845821406270983	-0.8031447684852078	8.034777369978697	-0.4260217467233301	2.091818350258939	-6.574354878350926	6.654866387835539	6.654866387835102	1.357381771957259	0.03353028820032506	0.5370852330711258	-0.2721711227246949	5.775935379230432e-09	9.237252926877723e-08	-5.079815691429514e-09	6.77562915834346e-09	2.194838307053024e-08	2.70442741142177e-08	1.192860574915984e-08
0.02	-0.01721436907173009	0.04681974374979686	0.923183987873351	0.3102210135785799	-0.260464916058912	-0.3175073533388051	-0.3892788266103316	0.2512738254443812	0.2512738254443805	-0.100174150241659	-0.174490025340763	-0.0006986277834649283	0.03726969584384549	-0.03117439662246141	-0.03694794562743279	-0.0161733367296204	0.16181880866532	-0.008457949193886878	0.04153575735997033	-0.1308758838918082	0.1337824487667968	0.1337824487667957	0.02755532066880126	0.0002384703349858569	0.01096589690492893	-0.005290903795093642	0.08931667435529149	-0.05800055464396225	-0.01547815249676123	-0.2859677613224003	0.2502861233854694	-0.01897468643634492	-0.001277890930357304	35.55792705839649	1.466962529639846	-0.0624524026571746	1.082923733613107	-637.3455943955186	-76.49105433046314	-22.94751045819349	-1.538429799512998	-1.74633903436149	-0.797268055879171	7.886291144250108	-0.4541828620226311	2.011743376014575	-6.170052756555884	6.621748600721422	6.62174860072131	1.291319592256181	-0.03679065135046773	0.6400848042307873	-0.2623139979163095	-1.137910954128534e-08	7.757055619076281e-08	3.584018647655064e-08	2.348996943416673e-08	-6.044557027699184e-08	-2.505007316097549e-09	7.029259181510117e-09
0.03	-0.01759958677328587	0.04636406668282738	0.9229830484151386	0.3122242256047449	-0.2605729402510733	-0.316991200012596	-0.3908948803594418	0.2529364797102097	0.2529364797101969	-0.09983807695638432	-0.1744879040889141	-0.0005583890255901625	0.03720236570182875	-0.04579473341423657	-0.05409097465354348	-0.02400109062222252	0.2384323490665668	-0.01319332102809856	0.06163653197870306	-0.1919297369645763	0.1984620731164078	0.1984620731164045	0.03944140858602944	0.0001942591264197008	0.01705394014454684	-0.008233733228023817	0.0826107075968375	-0.05185723654285858	-0.01507456498333775	-0.2794116524207808	0.2442548870333612	-0.02063602229488208	0.004400327738522264	33.51697217257387	2.41162349530374	-0.05975344821632391	1.636840025729612	-638.3841047857001	-73.59039567402236	-22.96883722718641	-1.412674095315353	-1.683806105661891	-0.7735218344482049	7.490196833867674	-0.4901945431973678	2.000486106015646	-6.012282237318709	6.348118273599338	6.348118273598719	1.104580204475004	0.0130394172929364	0.5889785751511928	-0.3190750261448718	-2.318138673662403e-08	3.433293662323781e-08	6.745063367278917e-08	3.172569023573127e-08	-1.182763933470106e-07	-2.680762531861446e-08	-6.474247057996111e-10
0.04	-0.01812877553801885	0.04573985507180917	0.9227042328623007	0.3149818353041165	-0.2607297142013972	-0.3162757906199684	-0.3931093187702091	0.255237340003852	0.255237340003851	-0.09938967742932371	-0.1744859697945714	-0.0003581069370548087	0.03710384574344983	-0.05996860925823456	-0.07065485443718109	-0.03174855565469024	0.3126983432999849	-0.01820790082540963	0.08138697064596859	-0.2505528162245358	0.2614236543267566	0.2614236543267526	0.05002056902400408	0.0002010788339564546	0.02297456303711173	-0.01152886706750538	0.07590474083868834	-0.04571391844172311	-0.01467097746994254	-0.2728555435189714	0.2382236506813317	-0.02229735815335642	0.01007854640758279	31.52985568516464	3.349478776124213	-0.05896238344362211	2.141233573479131	-638.6042241187864	-70.60871244113864	-22.99796025238383	-1.449137609957111	-1.630509185867367	-0.7812102838523178	7.416781910684549	-0.5100244546425223	1.94167618572114	-5.683897993993939	6.278139972869052	6.278139972869209	1.029934096405435	-0.02658446812994911	0.606600734819591	-0.3327748792268317	-3.48732975871137e-08	-9.490984933761654e-09	9.886913128198149e-08	3.978659414091936e-08	-1.756007601226478e-07	-5.100206469375408e-08	-8.381373280112641e-09
0.05	-0.01879737940507305	0.04495298459343016	0.9223482318859489	0.3184704764760117	-0.2609379065704495	-0.3153653568742856	-0.3958974535013618	0.2581596678325732	0.2581596678325667	-0.09884163883087244	-0.1744844389385139	-9.914640857297728e-05	0.03697086372938029	-0.07364676726241098	-0.08661384163785789	-0.03944584869960562	0.3846184500729757	-0.0234667771853037	0.1006381986875738	-0.3066544881720924	0.3227874757216513	0.3227874757216568	0.05939146054840069	0.0001100303493616027	0.0288193906676236	-0.01510462373017977	0.06788254034364453	-0.04352347681468009	-0.01412157366046963	-0.2651909684837899	0.2292650033692284	-0.01940478816023667	0.01670026946071003	28.80889663195374	2.456112466367163	0.2131579494263706	2.812504128358905	-639.0105094538558	-71.35360335080117	-23.03424535439165	-1.311342932397192	-1.562775526038306	-0.7631557608632785	7.017907586213908	-0.5392569898717195	1.907591804097325	-5.510355519570245	6.02733960713964	6.027339607140523	0.8613188908247502	0.0003940415719498845	0.5736991981650521	-0.3755487417634724	-4.251292533773812e-08	-3.920864600487496e-08	1.177495609685458e-07	4.521699604185164e-08	-2.151771492253748e-07	-6.520941162129968e-08	-1.340180786503453e-08
0.06	-0.01959960245951818	0.04400968783526797	0.9219154245899379	0.3226659752207826	-0.2611997752557471	-0.3142642617100518	-0.3992340156968711	0.2616880011521264	0.261688001152128	-0.09820576087508832	-0.1744836667512584	0.0002183174804131715	0.03680100961228871	-0.08669244673655679	-0.1019401103938181	-0.04710981958657598	0.4540698578702149	-0.0289431640735762	0.1195192543578758	-0.3602383090969347	0.3826247524901458	0.3826247524901568	0.06758844048751045	4.934507261314652e-05	0.03467523513804947	-0.01890328767189333	0.05986033984884386	-0.04133303518759754	-0.01357216985106135	-0.2575263934484512	0.2203063560571962	-0.01651221816704834	0.02332199251397604	26.13662399814717	1.556275273719446	0.4839651108850782	3.434520890850854	-638.6757642300163	-72.023820766618	-23.07697519750144	-1.322641903950512	-1.503965496924576	-0.7745458522633388	6.923042115534411	-0.5535265603182151	1.867641711460509	-5.180327789450836	5.972831047589051	5.972831047588438	0.7951517793480348	-0.02051182656072371	0.6088041028017784	-0.3773563350349131	-4.998193064205242e-08	-6.83323592660562e-08	1.361020720057362e-07	5.053663996365735e-08	-2.540062550576634e-07	-7.899624939315711e-08	-1.830798922935046e-08
0.07000000000000001	-0.02052960562997024	0.04291640185638915	0.9214060299031789	0.327544192243631	-0.2615173185884561	-0.3129765707903188	-0.4030937773575633	0.2658071658189157	0.2658071658189077	-0.09749344300806276	-0.1744836434496345	0.0005945169784543329	0.03659228619504362	-0.09922536431124859	-0.1165995194915749	-0.05477034806200563	0.5211726049674044	-0.03458868233262232	0.1379470211259577	-0.4113168600285088	0.4409417998205256	0.4409417998205464	0.07469380627327719	-4.116622351369237e-05	0.04057284000211922	-0.02286270973530418	0.05273490917294717	-0.03923243091324327	-0.01313111814196743	-0.2522448048482042	0.2148166535119477	-0.0146949743256655	0.02935938553782947	24.51539149860175	0.9816431919511364	0.6546987409972564	3.355107625685879	-638.5968329137116	-72.14832299098404	-23.12532571297276	-1.206189152971437	-1.429283562327829	-0.7620421616934092	6.543748549098976	-0.5735422083619488	1.8195310465815	-5.012044292577967	5.721188139719948	5.721188139721447	0.6410282225285476	-0.002765836418477002	0.5814609294439789	-0.4084365765665313	-5.489997573707671e-08	-1.122155421109337e-07	1.454830201460506e-07	5.273651295413393e-08	-2.847838444801735e-07	-9.069505697195503e-08	-2.387231756380521e-08
